<svg width="24" height="24" viewBox="0 0 24 24" fill="none" xmlns="http://www.w3.org/2000/svg">
<path d="M20.4847 3.515C25.1714 8.20167 25.1714 15.799 20.4847 20.4857C15.798 25.1723 8.20069 25.1723 3.51402 20.4857C-1.17264 15.799 -1.17264 8.20167 3.51402 3.515C8.20069 -1.17167 15.798 -1.17167 20.4847 3.515ZM10.0547 16.7737L7.22669 13.9457L5.98869 18.0117L10.0547 16.7737ZM16.5954 10.2337L13.7674 7.405L7.75669 13.415L10.5854 16.2437L16.5954 10.2337ZM19.0707 7.051L16.9494 4.92967C16.776 4.75633 16.506 4.737 16.3114 4.87233L16.242 4.92967L14.474 6.69767L17.3027 9.52633L19.0707 7.75833C19.244 7.585 19.2634 7.31567 19.128 7.12033L19.0707 7.051Z" fill="#4F8664"/>
</svg>
