<svg width="9" height="17" viewBox="0 0 9 17" fill="none" xmlns="http://www.w3.org/2000/svg">
<path d="M0.617995 1.71871C0.259328 1.33338 0.381329 0.763376 0.834662 0.512042C0.981301 0.430326 1.1468 0.38849 1.31466 0.390709C1.57999 0.390709 1.83866 0.490709 2.01333 0.682042L8.79266 7.99871C8.92597 8.13835 9.00035 8.32399 9.00035 8.51704C9.00035 8.7101 8.92597 8.89573 8.79266 9.03538L2.01133 16.3307C1.71933 16.6427 1.21266 16.706 0.833328 16.4974C0.379328 16.246 0.257995 15.6774 0.616661 15.2914L6.914 8.51538L0.617995 1.71871ZM8.09199 8.64738C8.06206 8.61054 8.04572 8.56451 8.04572 8.51704C8.04572 8.46957 8.06206 8.42355 8.09199 8.38671L7.97133 8.51604L8.09199 8.64738ZM1.29533 15.6614C1.302 15.6654 1.33066 15.6614 1.314 15.6794C1.3096 15.6717 1.30313 15.6655 1.29533 15.6614ZM1.31133 1.32804C1.31289 1.32981 1.31445 1.33159 1.316 1.33338L1.31133 1.32804Z" fill="#4F8664"/>
</svg>
