<svg width="21" height="21" viewBox="0 0 21 21" fill="none" xmlns="http://www.w3.org/2000/svg">
<path d="M13.1251 2.09961V5.24961C13.1251 5.82951 13.5952 6.29961 14.1751 6.29961H17.3251M7.35013 6.29961H9.45013M7.35013 9.44961H13.6501M7.35013 12.5996H13.6501M15.7501 3.67461C15.2828 3.25648 14.7979 2.76056 14.4918 2.43848C14.288 2.22415 14.0066 2.09961 13.7109 2.09961H5.77489C4.61509 2.09961 3.67489 3.0398 3.67489 4.1996L3.6748 16.7995C3.6748 17.9593 4.615 18.8996 5.7748 18.8996L15.2248 18.8996C16.3846 18.8996 17.3248 17.9594 17.3248 16.7997L17.3251 5.66771C17.3251 5.39923 17.2227 5.14114 17.0364 4.94785C16.6918 4.59042 16.1164 4.00231 15.7501 3.67461Z" stroke="#333333" stroke-width="2" stroke-linecap="round" stroke-linejoin="round"/>
</svg>
