<svg width="18" height="16" viewBox="0 0 18 16" fill="none" xmlns="http://www.w3.org/2000/svg">
<path d="M13.2855 2.59805L17.6027 6.91523C17.8559 7.16836 18 7.51641 18 7.875C18 8.23359 17.8559 8.58164 17.6027 8.83477L13.2855 13.152C13.0605 13.377 12.7582 13.5 12.4418 13.5C11.7844 13.5 11.25 12.9656 11.25 12.3082V10.125H6.75C6.12773 10.125 5.625 9.62227 5.625 9V6.75C5.625 6.12773 6.12773 5.625 6.75 5.625H11.25V3.4418C11.25 2.78437 11.7844 2.25 12.4418 2.25C12.7582 2.25 13.0605 2.37656 13.2855 2.59805ZM5.625 2.25H3.375C2.75273 2.25 2.25 2.75273 2.25 3.375V12.375C2.25 12.9973 2.75273 13.5 3.375 13.5H5.625C6.24727 13.5 6.75 14.0027 6.75 14.625C6.75 15.2473 6.24727 15.75 5.625 15.75H3.375C1.51172 15.75 0 14.2383 0 12.375V3.375C0 1.51172 1.51172 0 3.375 0H5.625C6.24727 0 6.75 0.502734 6.75 1.125C6.75 1.74727 6.24727 2.25 5.625 2.25Z" fill="#333333"/>
</svg>
