<svg width="23" height="34" viewBox="0 0 23 34" fill="none" xmlns="http://www.w3.org/2000/svg">
<path d="M11.4142 0C5.10977 0 0 5.11113 0 11.4142C0 17.1777 6.63532 28.118 9.7921 32.9832C10.5516 34.166 12.2755 34.166 13.0416 32.9832C16.1932 28.117 22.8286 17.1777 22.8286 11.4142C22.8286 5.11113 17.7186 0 11.4142 0ZM11.4142 16.4843C8.61454 16.4843 6.34403 14.2152 6.34403 11.4142C6.34403 8.61454 8.61444 6.34403 11.4142 6.34403C14.2139 6.34403 16.4894 8.61312 16.4894 11.4142C16.4894 14.2138 14.2137 16.4843 11.4142 16.4843Z" fill="#FF3F39"/>
</svg>
