<svg width="40" height="40" viewBox="0 0 40 40" fill="none" xmlns="http://www.w3.org/2000/svg">
<path d="M9 9.7H8.7V10V30V30.3H9H31H31.3V30V10V9.7H31H9Z" fill="white" stroke="white" stroke-width="0.6"/>
<path d="M9.2242 30.7824L9.66817 30.2831H9H8.84828C8.84208 30.2831 8.82925 30.281 8.81334 30.2631C8.79691 30.2446 8.78179 30.2128 8.78179 30.1707V30V29.211L8.25758 29.8007L2.03297 36.8024V31.4965C2.03297 31.1376 1.76731 30.7841 1.36648 30.7841C0.965661 30.7841 0.7 31.1376 0.7 31.4965V38.5868C0.7 38.9463 0.965826 39.2992 1.36645 39.2992C1.36646 39.2992 1.36647 39.2992 1.36648 39.2992L7.66889 39.3H7.66893C8.06902 39.3 8.33541 38.9473 8.33541 38.5876C8.33541 38.2282 8.06959 37.8753 7.66897 37.8753C7.66896 37.8753 7.66894 37.8753 7.66893 37.8753L2.91851 37.8745L9.2242 30.7824Z" fill="white" stroke="white" stroke-width="0.6"/>
<path d="M37.9666 31.4964V36.8031L31.7425 29.8007L31.2183 29.2109V30V30.1707C31.2183 30.2127 31.2031 30.2445 31.1867 30.263C31.1708 30.2809 31.158 30.2831 31.1517 30.2831H31H30.3319L30.7758 30.7824L37.08 37.8746L32.3294 37.8753C32.3293 37.8753 32.3293 37.8753 32.3293 37.8753C31.9287 37.8753 31.6628 38.2282 31.6628 38.5876C31.6628 38.9474 31.9293 39.3 32.3294 39.3H32.3294L38.6335 39.2992C38.6335 39.2992 38.6335 39.2992 38.6335 39.2992C39.0341 39.2992 39.3 38.9463 39.3 38.5868L39.3 31.4964L39.3 31.4959C39.2994 31.1375 39.034 30.7841 38.6331 30.7841C38.2323 30.7841 37.9666 31.1375 37.9666 31.4964Z" fill="white" stroke="white" stroke-width="0.6"/>
<path d="M31.6625 1.41237C31.6625 1.77125 31.9282 2.12472 32.329 2.12474L30.7758 9.2176L30.3319 9.71691H31H31.1517C31.158 9.71691 31.1708 9.71904 31.1867 9.73695C31.2031 9.75546 31.2183 9.78724 31.2183 9.82928V10V10.789L31.7425 10.1993L37.967 3.19689V8.50309C37.967 8.86198 38.2327 9.21546 38.6335 9.21546C39.0343 9.21546 39.3 8.86198 39.3 8.50309L39.3 1.4132L39.3 1.41271C39.2994 1.05366 39.0338 0.700848 38.6332 0.700825C38.6331 0.700825 38.6331 0.700825 38.6331 0.700825L32.329 0.7H32.329C31.9287 0.7 31.6625 1.05328 31.6625 1.41237Z" fill="white" stroke="white" stroke-width="0.6"/>
<path d="M2.03297 8.50309V3.19802L8.25759 10.1993L8.78179 10.7889V10V9.82928C8.78179 9.78723 8.79691 9.75545 8.81334 9.73695C8.82925 9.71903 8.84208 9.71691 8.84828 9.71691H9H9.66814L9.2242 9.21758L2.91885 2.12546L7.66893 2.12474C7.66894 2.12474 7.66896 2.12474 7.66897 2.12474C8.06977 2.12472 8.33541 1.77122 8.33541 1.41237C8.33541 1.05331 8.0692 0.7 7.66893 0.7H7.66889L1.36648 0.700825C1.36647 0.700825 1.36646 0.700825 1.36645 0.700825C0.965643 0.700848 0.7 1.05435 0.7 1.4132V8.50309C0.7 8.86195 0.965661 9.21546 1.36648 9.21546C1.76731 9.21546 2.03297 8.86195 2.03297 8.50309Z" fill="white" stroke="white" stroke-width="0.6"/>
</svg>
