<svg width="20" height="20" viewBox="0 0 20 20" fill="none" xmlns="http://www.w3.org/2000/svg">
<path d="M18.6638 16.7705C18.6638 16.7705 17.5052 17.9085 17.2212 18.2422C16.7587 18.7358 16.2137 18.9689 15.4992 18.9689C15.4305 18.9689 15.3573 18.9689 15.2886 18.9643C13.9284 18.8775 12.6644 18.3473 11.7164 17.8948C9.12431 16.6426 6.84819 14.8647 4.95678 12.6115C3.3951 10.7331 2.35093 8.99638 1.6594 7.13168C1.23349 5.99366 1.07778 5.10702 1.14647 4.27064C1.19227 3.73591 1.39835 3.29259 1.77847 2.91325L3.34015 1.35477C3.56455 1.14453 3.8027 1.03027 4.03626 1.03027C4.32478 1.03027 4.55835 1.20395 4.7049 1.3502C4.70948 1.35477 4.71406 1.35934 4.71864 1.36391C4.998 1.62442 5.26362 1.89407 5.54298 2.182C5.68495 2.32825 5.8315 2.4745 5.97805 2.62532L7.22831 3.87303C7.71376 4.35748 7.71376 4.80538 7.22831 5.28983C7.0955 5.42237 6.96727 5.55491 6.83446 5.68288C6.44976 6.07593 6.75196 5.77435 6.35353 6.13083C6.34437 6.13997 6.33521 6.14454 6.33063 6.15368C5.93677 6.54673 6.01005 6.93064 6.09248 7.19115C6.09706 7.20486 6.10164 7.21857 6.10622 7.23228C6.43138 8.01838 6.88935 8.75878 7.58547 9.64085L7.59005 9.64542C8.85404 11.1993 10.1867 12.4105 11.6568 13.3383C11.8446 13.4571 12.0369 13.5531 12.2201 13.6445C12.385 13.7267 12.5407 13.8044 12.6735 13.8867C12.6918 13.8958 12.7101 13.9095 12.7285 13.9187C12.8842 13.9964 13.0307 14.033 13.1819 14.033C13.562 14.033 13.8001 13.7953 13.878 13.7176L14.7757 12.8217C14.9314 12.6664 15.1787 12.479 15.4672 12.479C15.7511 12.479 15.9847 12.6572 16.1267 12.8126C16.1312 12.8172 16.1312 12.8172 16.1358 12.8217L18.6592 15.34C19.1309 15.8062 18.6638 16.7705 18.6638 16.7705Z" stroke="#4F8664" stroke-width="2" stroke-linecap="round" stroke-linejoin="round"/>
</svg>
